<svg xmlns:xlink="http://www.w3.org/1999/xlink" width="224" height="31" viewBox="0 0 224 31" fill="none" xmlns="http://www.w3.org/2000/svg">
  <g clip-path="url(#clip0_3844_7613)" fill="none">
  <path d="M224.206 27.4653C224.206 29.4959 222.68 30.9624 220.781 30.9624C218.883 30.9624 217.32 29.4583 217.32 27.4653C217.32 25.4724 218.883 23.9683 220.781 23.9683C222.68 23.9683 224.206 25.51 224.206 27.4653ZM63.9689 27.9166C62.1079 27.9166 61.1773 26.8637 61.1773 24.4195V11.0705H66.3511V9.22797H61.1773V3.96357H59.7257C58.1624 7.27262 56.9341 8.47591 53.1376 9.52879V11.0705H55.5942V24.7579C55.5942 29.2703 57.9763 31 61.2518 31C64.1178 31 66.1278 29.5335 67.3933 27.5405L66.9094 26.8261C65.9416 27.5405 65.0856 27.9166 63.9689 27.9166ZM39.5147 3.66275V2.27145H31.6238V3.70035C34.006 3.77556 34.8248 4.3396 34.8248 5.50529C34.8248 6.06933 34.6015 6.67098 34.3409 7.38543L29.3161 22.4642L24.4401 7.46063C24.2168 6.55817 23.9935 5.95652 23.9935 5.39248C23.9935 4.18919 24.7751 3.70035 27.1945 3.66275V2.27145H15.6932V3.70035C16.8098 3.85076 17.517 4.15159 17.8892 5.20447L20.0853 11.8602L16.2143 22.6522L10.7428 7.23502C10.5194 6.52056 10.2589 5.88132 10.2589 5.31727C10.2589 4.26439 11.0033 3.77556 13.1249 3.70035V2.27145H1.4375V3.70035C2.51691 3.85076 3.44744 4.18919 3.78243 5.20447L13.1249 30.8496H15.0232L20.9414 14.4924L26.4129 30.8496H28.3111L37.1697 5.20447C37.542 4.07638 38.4353 3.85076 39.5147 3.66275ZM83.845 24.0059C82.5423 25.9988 80.7556 26.9765 78.2618 26.9765C74.2419 26.9765 71.8226 23.5546 71.8226 18.2526C71.8226 13.7779 73.572 10.3184 76.6241 10.3184C78.8574 10.3184 79.5273 12.0858 79.5273 14.2291C79.5273 14.9436 79.4529 15.5452 79.3785 16.2221H82.3934C83.2495 15.8085 83.9194 14.7932 83.9194 13.5147C83.9194 10.3937 81.2023 8.81434 77.2941 8.81434C71.0037 8.81434 66.9466 13.8907 66.9466 20.6216C66.9466 26.9389 70.8921 31 76.2519 31C80.309 31 83.2867 28.819 84.515 24.4195L83.845 24.0059ZM157.654 19.4559C157.654 26.2996 153.225 31 147.27 31C141.165 31 136.997 26.7885 136.997 20.396C136.997 13.5523 141.426 8.81434 147.381 8.81434C153.523 8.81434 157.654 13.0635 157.654 19.4559ZM151.773 20.8096C151.773 14.8308 150.434 10.2808 147.233 10.2808C144.292 10.2808 142.915 13.6651 142.915 18.9671C142.915 24.9459 144.329 29.5335 147.493 29.5335C150.434 29.5335 151.773 26.1116 151.773 20.8096ZM178.312 26.2996V13.5523L178.461 8.85194H177.568L170.31 10.3937V11.5969L170.905 11.7098C172.468 12.0106 172.729 12.6498 172.729 13.9659V26.1116C171.463 26.9765 170.272 27.6533 168.672 27.6533C166.476 27.6533 165.545 26.1868 165.545 23.7427V13.6275L165.731 8.81434H164.838L157.506 10.3561V11.5593L158.138 11.6722C159.702 11.973 159.962 12.6122 159.962 13.9283V24.4195C159.962 28.9318 162.233 30.9624 165.731 30.9624C168.895 30.9624 171.017 28.9694 172.692 27.0893L172.655 30.9624H173.659L180.918 29.4959V28.3302L179.913 28.255C178.387 28.1046 178.312 27.6533 178.312 26.2996ZM216.166 23.8931L216.799 24.2691C215.757 28.2174 212.853 30.9624 208.238 30.9624C202.469 30.9624 198.56 26.6381 198.56 20.4336C198.56 13.5523 202.952 8.77673 208.424 8.77673C213.784 8.77673 216.575 12.349 216.575 17.1998V18.1398H203.548C203.399 23.7803 206.265 27.1269 210.173 27.1269C212.928 27.1645 214.714 25.9612 216.166 23.8931ZM203.66 16.6733H211.625C211.625 12.8754 210.62 10.3184 208.015 10.3184C205.409 10.2808 203.995 12.9506 203.66 16.6733ZM110.868 27.4653C110.868 28.8942 110.123 29.0447 108.039 29.1575C105.954 29.0447 105.21 28.8942 105.21 27.4653V19.4935V15.3948C105.21 10.9953 103.2 8.77673 99.4778 8.77673C96.1279 8.77673 93.8202 10.6945 92.1453 12.725V-1H91.252L84.18 0.917744V1.78261L86.5621 3.0235V27.4653C86.5621 28.8942 85.9294 29.1199 84.1055 29.2327V30.5864H94.5647V29.2703C92.7408 29.1575 92.1453 28.8942 92.1453 27.5029V13.8531C93.4108 12.9506 94.9369 12.1986 96.5746 12.1986C98.7707 12.1986 99.7012 13.3643 99.7012 15.6957V27.4653C99.7012 28.8942 99.1056 29.1199 97.2818 29.2327V30.5864H119.987V29.1575C117.195 28.819 116.786 28.5934 116.786 26.3749V17.0494H128.734V26.3749C128.734 28.5934 128.324 28.819 125.533 29.1575V30.5864H137.741V29.1575C134.95 28.819 134.54 28.5934 134.54 26.3749V6.44536C134.54 4.22679 134.95 4.00118 137.741 3.66275V2.27145H125.533V3.70035C128.324 4.03878 128.734 4.26439 128.734 6.48296V15.1692H116.711V6.44536C116.711 4.22679 117.121 4.00118 119.912 3.66275V2.27145H107.666V3.70035C110.458 4.03878 110.868 4.26439 110.868 6.48296V27.4653ZM197.444 24.1563C197.444 28.4806 194.243 30.9624 189.33 30.9624C186.277 30.9624 183.784 30.1727 182.146 28.9318L181.923 23.4418H183.411C184.305 26.9389 186.315 29.5711 189.404 29.5711C191.563 29.5711 193.201 28.5182 193.201 26.2996C193.201 24.1187 191.712 23.2914 188.585 22.1633C184.305 20.6592 182.109 18.9671 182.109 15.2444C182.109 11.2209 185.161 8.77673 189.516 8.85194C193.461 8.88954 196.29 11.7474 196.29 15.0188C196.29 16.5229 195.694 17.9142 194.727 18.9671C196.476 20.1328 197.444 21.7121 197.444 24.1563ZM194.615 14.9436C194.615 12.4618 192.344 10.4689 189.665 10.4689C187.282 10.4689 186.277 11.973 186.277 13.1387C186.277 14.9812 187.506 15.8837 190.595 17.0118C191.526 17.3502 192.568 17.7638 193.312 18.1398C194.131 17.3502 194.615 16.1469 194.615 14.9436ZM54.5892 27.9542L54.8125 28.8566C53.6587 30.2103 52.1326 31 50.2716 31C48.1127 31 46.6611 29.6839 46.2889 27.4653C45.0234 29.1575 42.939 30.9248 40.073 30.9248C36.8348 30.9248 34.6759 28.9318 34.6759 25.7356C34.6759 22.7274 36.537 21.2609 38.9936 20.1704C38.9564 20.1704 36.3137 18.8167 36.2764 15.5076C36.2392 12.1986 38.4353 8.77673 43.4229 8.73913C43.4601 8.73913 43.5346 8.73913 43.5718 8.73913C48.3361 8.77673 51.6487 11.3713 51.6487 15.7709V26.1116C51.6487 27.4653 51.9465 28.3678 52.9515 28.3678C53.5842 28.3678 54.1426 28.1422 54.5892 27.9542ZM46.1772 18.9295L42.7529 20.3584C41.078 20.9977 40.0358 21.9377 40.0358 24.1939C40.0358 26.2996 41.0035 27.7662 43.1251 27.7662C44.279 27.7662 45.0978 27.3149 46.2145 26.4877V18.9295H46.1772ZM42.6412 10.7321C38.5841 10.7321 37.9886 14.0787 37.9886 15.2068C37.9886 18.5159 40.5569 19.4559 40.5569 19.4559L46.2145 17.463C46.1773 14.53 46.5122 10.7321 42.6412 10.7321Z" fill="#0A0A09"></path>
  </g>
  <defs>
  <clipPath id="clip0_3844_7613">
  <rect width="224" height="31" fill="white"></rect>
  </clipPath>
  </defs>
</svg>