<svg xmlns:xlink="http://www.w3.org/1999/xlink" width="40" height="40" viewBox="0 0 40 40" fill="none" xmlns="http://www.w3.org/2000/svg">
<path d="M20 32C26.6274 32 32 26.6274 32 20C32 13.3726 26.6274 8 20 8C13.3726 8 8 13.3726 8 20C8 26.6274 13.3726 32 20 32Z" stroke="#0A0A09" stroke-width="1.5px" stroke-miterlimit="10" stroke-linecap="square" fill="none"></path>
<path d="M19.9997 26.6206C20.2283 26.6206 20.4135 26.4354 20.4135 26.2068C20.4135 25.9783 20.2283 25.793 19.9997 25.793C19.7712 25.793 19.5859 25.9783 19.5859 26.2068C19.5859 26.4354 19.7712 26.6206 19.9997 26.6206Z" fill="#0A0A09" stroke="#0A0A09" stroke-width="1.5px" stroke-miterlimit="10" stroke-linecap="square"></path>
<path d="M17.1016 13.6074C19.3696 12.604 22.305 12.7236 23.3085 14.3469C24.3119 15.9702 23.618 17.8571 21.9016 19.3124C20.1851 20.7677 19.9981 21.7513 19.9981 22.8967" stroke="#0A0A09" stroke-width="1.5px" stroke-miterlimit="10" stroke-linecap="square" fill="none"></path>
</svg>