<svg xmlns:xlink="http://www.w3.org/1999/xlink" width="21" height="21" viewBox="0 0 21 21" fill="none" xmlns="http://www.w3.org/2000/svg">
  <g clip-path="url(#clip0_3950_10287)" fill="none">
  <path d="M10.166 0.97168C4.72887 0.97168 0.304932 5.39562 0.304932 10.8328C0.304932 16.27 4.72887 20.6939 10.166 20.6939C15.6032 20.6939 20.0272 16.27 20.0272 10.8328C20.0272 5.39562 15.6032 0.97168 10.166 0.97168ZM14.6898 15.2062C14.6434 15.2725 14.5844 15.329 14.5162 15.3724C14.4479 15.4159 14.3718 15.4454 14.2921 15.4594C14.2124 15.4734 14.1307 15.4715 14.0517 15.4538C13.9728 15.4362 13.8981 15.4031 13.8319 15.3566C11.5207 13.732 7.67611 13.642 5.08017 14.2472C5.00126 14.2655 4.91952 14.2681 4.83961 14.2548C4.75971 14.2415 4.6832 14.2126 4.61447 14.1697C4.54574 14.1268 4.48612 14.0708 4.43902 14.0049C4.39192 13.939 4.35827 13.8645 4.33997 13.7856C4.32168 13.7067 4.31911 13.6249 4.33241 13.545C4.34571 13.4651 4.37462 13.3886 4.41749 13.3199C4.46035 13.2511 4.51634 13.1915 4.58224 13.1444C4.64815 13.0973 4.72269 13.0637 4.8016 13.0454C7.65516 12.3847 11.9201 12.5055 14.5394 14.3483C14.6731 14.4422 14.7639 14.5853 14.7921 14.7461C14.8203 14.907 14.7835 15.0724 14.6898 15.2062ZM15.8929 12.8013C15.8456 12.867 15.7859 12.9228 15.7171 12.9655C15.6482 13.0081 15.5717 13.0368 15.4918 13.0498C15.4119 13.0629 15.3302 13.06 15.2514 13.0415C15.1726 13.023 15.0982 12.9891 15.0325 12.9418C12.3515 11.0177 9.0579 10.5394 4.66231 11.4368C4.58299 11.4531 4.50125 11.4535 4.42174 11.4382C4.34224 11.4229 4.26653 11.3921 4.19894 11.3475C4.13135 11.3029 4.0732 11.2454 4.02782 11.1784C3.98244 11.1113 3.9507 11.036 3.93444 10.9567C3.91817 10.8774 3.91768 10.7956 3.93301 10.7161C3.94833 10.6366 3.97916 10.5609 4.02375 10.4933C4.06833 10.4257 4.12579 10.3676 4.19284 10.3222C4.2599 10.2768 4.33523 10.2451 4.41455 10.2288C9.16884 9.25871 12.7706 9.80107 15.7511 11.9397C15.8839 12.0354 15.9733 12.1798 15.9999 12.3412C16.0265 12.5027 15.988 12.6681 15.8929 12.8013ZM17.1083 9.5718C17.0628 9.63886 17.0046 9.69631 16.9369 9.74085C16.8693 9.78539 16.7935 9.81615 16.7139 9.83138C16.6343 9.8466 16.5526 9.84599 16.4732 9.82958C16.3939 9.81317 16.3186 9.78129 16.2516 9.73574C12.8532 7.42947 7.68721 7.41838 4.34306 8.60171C4.26665 8.62867 4.18569 8.6403 4.10479 8.63597C4.02388 8.63163 3.94463 8.6114 3.87155 8.57643C3.79846 8.54146 3.73298 8.49244 3.67884 8.43217C3.62471 8.37189 3.58297 8.30155 3.55602 8.22514C3.52906 8.14874 3.51743 8.06777 3.52176 7.98687C3.5261 7.90597 3.54633 7.82672 3.5813 7.75363C3.61627 7.68055 3.66529 7.61507 3.72556 7.56093C3.78584 7.50679 3.85618 7.46505 3.93259 7.4381C7.57011 6.15246 13.207 6.17958 16.9456 8.71512C17.0803 8.80752 17.173 8.94944 17.2034 9.10993C17.2339 9.27042 17.1997 9.43644 17.1083 9.5718Z" fill="#0A0A09"></path>
  </g>
  <defs>
  <clipPath id="clip0_3950_10287">
  <rect width="19.7222" height="19.7222" fill="white" transform="translate(0.30542 0.972168)"></rect>
  </clipPath>
  </defs>
</svg>