<svg xmlns:xlink="http://www.w3.org/1999/xlink" xmlns="http://www.w3.org/2000/svg" fill="none" viewBox="0 0 42 42" width="42"  height="42" >
  <g clip-path="url(#uk-flag)" fill="none"><path fill="#002781" d="M46.847-.15h-51.7a2.35 2.35 0 0 0-2.35 2.35v37.6a2.35 2.35 0 0 0 2.35 2.35h51.7a2.35 2.35 0 0 0 2.35-2.35V2.2a2.35 2.35 0 0 0-2.35-2.35Z"></path><path fill="#E6E6E6" d="M49.197 2.2a2.35 2.35 0 0 0-2.35-2.35h-6.064L25.697 11.454V-.15h-9.4v11.604L1.21-.15h-6.064a2.35 2.35 0 0 0-2.35 2.35v3.038L7.177 16.3h-14.38v9.4h14.38l-14.38 11.062V39.8a2.35 2.35 0 0 0 2.35 2.35H1.21l15.086-11.605V42.15h9.4V30.545L40.783 42.15h6.064a2.35 2.35 0 0 0 2.35-2.35v-3.038L34.817 25.7h14.38v-9.4h-14.38l14.38-11.062V2.2Z"></path><path fill="#D10D24" d="M49.197 18.65h-25.85V-.15h-4.7v18.8h-25.85v4.7h25.85v18.8h4.7v-18.8h25.85v-4.7Z"></path><path fill="#D10D24" d="m16.297 25.374-21.64 16.723c.16.034.325.052.49.053h2.804l18.346-14.177v-2.599ZM25.695 16.625 47.337-.098a2.419 2.419 0 0 0-.492-.052h-2.803L25.695 14.027v2.598ZM13.954 16.3-6.48.51a2.337 2.337 0 0 0-.723 1.69v.352L10.59 16.299h3.363ZM28.04 25.7l20.434 15.789a2.337 2.337 0 0 0 .722-1.69v-.352L31.402 25.699h-3.363Z"></path></g><rect width="41" height="41" x=".5" y=".5" stroke="#FCF7E6" rx="20.5" fill="none"></rect><defs><clipPath id="uk-flag"><rect width="42" height="42" fill="#fff" rx="21"></rect></clipPath></defs>
</svg>