<svg xmlns:xlink="http://www.w3.org/1999/xlink" width="19" height="18" viewBox="0 0 19 18" fill="none" xmlns="http://www.w3.org/2000/svg">
  <g clip-path="url(#clip0_3950_10284)" fill="none">
  <path d="M0.95752 2.8919C0.95752 2.32745 1.15741 1.86178 1.55718 1.49491C1.95695 1.12802 2.47667 0.94458 3.1163 0.94458C3.74453 0.94458 4.2528 1.12519 4.64116 1.48644C5.04093 1.85897 5.24082 2.34438 5.24082 2.9427C5.24082 3.48456 5.04665 3.9361 4.65829 4.29735C4.25852 4.66988 3.7331 4.85615 3.08204 4.85615H3.0649C2.43668 4.85615 1.92841 4.66988 1.54005 4.29735C1.15169 3.92482 0.95752 3.45633 0.95752 2.8919ZM1.18025 17.7084V6.39707H4.98382V17.7084H1.18025ZM7.09121 17.7084H10.8948V11.3924C10.8948 10.9972 10.9405 10.6924 11.0318 10.478C11.1917 10.0941 11.4345 9.76958 11.76 9.50431C12.0855 9.23902 12.4939 9.10638 12.985 9.10638C14.2643 9.10638 14.9039 9.95868 14.9039 11.6633V17.7084H18.7075V11.223C18.7075 9.55228 18.3078 8.28512 17.5082 7.42153C16.7086 6.55793 15.6521 6.12614 14.3386 6.12614C12.8651 6.12614 11.7172 6.75267 10.8948 8.00572V8.03959H10.8776L10.8948 8.00572V6.39707H7.09121C7.11405 6.7583 7.12547 7.88153 7.12547 9.76677C7.12547 11.652 7.11405 14.2992 7.09121 17.7084Z" fill="#FCF7E6"></path>
  </g>
  <defs>
  <clipPath id="clip0_3950_10284">
  <rect width="17.75" height="16.7639" fill="white" transform="translate(0.958252 0.944458)"></rect>
  </clipPath>
  </defs>
</svg>