<svg xmlns:xlink="http://www.w3.org/1999/xlink" width="21" height="21" viewBox="0 0 21 21" fill="none" xmlns="http://www.w3.org/2000/svg">
  <path d="M15.7659 4.38411C15.5318 4.38411 15.303 4.45351 15.1084 4.58354C14.9138 4.71357 14.7622 4.89838 14.6726 5.1146C14.583 5.33083 14.5596 5.56876 14.6053 5.7983C14.6509 6.02785 14.7636 6.2387 14.9291 6.40419C15.0946 6.56968 15.3055 6.68238 15.535 6.72804C15.7645 6.7737 16.0025 6.75027 16.2187 6.6607C16.4349 6.57114 16.6197 6.41947 16.7498 6.22487C16.8798 6.03027 16.9492 5.80149 16.9492 5.56745C16.9492 5.25361 16.8245 4.95262 16.6026 4.7307C16.3807 4.50878 16.0797 4.38411 15.7659 4.38411ZM20.302 6.7705C20.2828 5.95232 20.1296 5.14283 19.8484 4.37425C19.5976 3.71665 19.2074 3.12118 18.7045 2.62883C18.2162 2.12338 17.6193 1.73559 16.9591 1.49481C16.1925 1.20505 15.3821 1.04831 14.5628 1.03133C13.5175 0.972168 13.1822 0.972168 10.5 0.972168C7.8178 0.972168 7.48253 0.972168 6.43725 1.03133C5.61794 1.04831 4.80755 1.20505 4.041 1.49481C3.38196 1.73803 2.78561 2.12548 2.29558 2.62883C1.79013 3.11713 1.40234 3.71399 1.16155 4.37425C0.871797 5.1408 0.715054 5.95119 0.698083 6.7705C0.638916 7.81578 0.638916 8.15106 0.638916 10.8333C0.638916 13.5155 0.638916 13.8508 0.698083 14.8961C0.715054 15.7154 0.871797 16.5258 1.16155 17.2923C1.40234 17.9526 1.79013 18.5494 2.29558 19.0377C2.78561 19.5411 3.38196 19.9285 4.041 20.1717C4.80755 20.4615 5.61794 20.6183 6.43725 20.6352C7.48253 20.6944 7.8178 20.6944 10.5 20.6944C13.1822 20.6944 13.5175 20.6944 14.5628 20.6352C15.3821 20.6183 16.1925 20.4615 16.9591 20.1717C17.6193 19.931 18.2162 19.5432 18.7045 19.0377C19.2096 18.5472 19.6002 17.9512 19.8484 17.2923C20.1296 16.5237 20.2828 15.7142 20.302 14.8961C20.302 13.8508 20.3611 13.5155 20.3611 10.8333C20.3611 8.15106 20.3611 7.81578 20.302 6.7705ZM18.527 14.7777C18.5198 15.4037 18.4064 16.0239 18.1917 16.6119C18.0342 17.041 17.7814 17.4288 17.4521 17.7459C17.1323 18.0718 16.7453 18.3242 16.3181 18.4855C15.7301 18.7002 15.1099 18.8136 14.4839 18.8208C13.4978 18.8701 13.1329 18.8799 10.5395 18.8799C7.946 18.8799 7.58114 18.8799 6.59503 18.8208C5.94507 18.8329 5.29789 18.7329 4.68197 18.5249C4.27351 18.3554 3.90428 18.1037 3.59725 17.7854C3.26995 17.4686 3.02022 17.0805 2.86753 16.6513C2.62677 16.0549 2.49324 15.4206 2.47308 14.7777C2.47308 13.7916 2.41392 13.4268 2.41392 10.8333C2.41392 8.23981 2.41392 7.87495 2.47308 6.88883C2.4775 6.2489 2.59433 5.61472 2.81822 5.01522C2.99182 4.599 3.25829 4.22797 3.59725 3.9305C3.89684 3.59144 4.2671 3.32217 4.68197 3.14161C5.28306 2.92471 5.91658 2.81134 6.55558 2.80633C7.54169 2.80633 7.90655 2.74717 10.5 2.74717C13.0935 2.74717 13.4584 2.74717 14.4445 2.80633C15.0704 2.81351 15.6906 2.92688 16.2786 3.14161C16.7268 3.30792 17.129 3.57831 17.4521 3.9305C17.7753 4.23341 18.0278 4.60375 18.1917 5.01522C18.4109 5.6157 18.5243 6.24962 18.527 6.88883C18.5763 7.87495 18.5861 8.23981 18.5861 10.8333C18.5861 13.4268 18.5763 13.7916 18.527 14.7777ZM10.5 5.77453C9.49992 5.77648 8.52284 6.07483 7.69223 6.63187C6.86162 7.18892 6.21476 7.97967 5.83339 8.9042C5.45201 9.82874 5.35324 10.8456 5.54955 11.8262C5.74585 12.8069 6.22843 13.7073 6.9363 14.4138C7.64417 15.1203 8.54557 15.6011 9.5266 15.7955C10.5076 15.9899 11.5243 15.8892 12.4481 15.506C13.3718 15.1228 14.1613 14.4744 14.7168 13.6427C15.2722 12.811 15.5686 11.8334 15.5686 10.8333C15.5699 10.1678 15.4397 9.50854 15.1853 8.89355C14.9309 8.27857 14.5574 7.71994 14.0864 7.2498C13.6153 6.77966 13.056 6.40729 12.4405 6.15411C11.825 5.90093 11.1655 5.77193 10.5 5.77453ZM10.5 14.117C9.85056 14.117 9.21568 13.9244 8.67567 13.5636C8.13566 13.2028 7.71478 12.6899 7.46624 12.0899C7.2177 11.4899 7.15267 10.8296 7.27937 10.1927C7.40608 9.55567 7.71882 8.97056 8.17806 8.51132C8.63731 8.05208 9.22241 7.73933 9.8594 7.61263C10.4964 7.48592 11.1566 7.55095 11.7567 7.79949C12.3567 8.04803 12.8695 8.46891 13.2304 9.00892C13.5912 9.54893 13.7838 10.1838 13.7838 10.8333C13.7838 11.2645 13.6988 11.6915 13.5338 12.0899C13.3688 12.4883 13.1269 12.8503 12.822 13.1552C12.5171 13.4602 12.1551 13.702 11.7567 13.8671C11.3583 14.0321 10.9313 14.117 10.5 14.117Z" fill="#FCF7E6"></path>
</svg>